<svg xmlns="http://www.w3.org/2000/svg" viewBox="0 0 476 208" role="img" aria-label="IMUNI logo" fill="#C9A84C">
  <title>IMUNI</title>
  <path d="M 24.00 0.00 L 16.00 3.00 L 7.00 11.00 L 2.00 23.00 L 2.00 33.00 L 6.00 43.00 L 12.00 50.00 L 21.00 55.00 L 32.00 56.00 L 33.00 55.00 L 39.00 54.00 L 48.00 48.00 L 53.00 41.00 L 53.00 39.00 L 55.00 36.00 L 56.00 25.00 L 55.00 24.00 L 55.00 21.00 L 53.00 15.00 L 44.00 5.00 L 33.00 0.00 Z"/>
  <path d="M 442.00 2.00 L 433.00 5.00 L 424.00 13.00 L 419.00 25.00 L 419.00 35.00 L 422.00 44.00 L 428.00 52.00 L 436.00 57.00 L 448.00 59.00 L 449.00 58.00 L 453.00 58.00 L 459.00 56.00 L 467.00 49.00 L 471.00 43.00 L 473.00 37.00 L 473.00 24.00 L 470.00 16.00 L 467.00 12.00 L 460.00 6.00 L 450.00 2.00 Z"/>
</svg>
