<svg xmlns="http://www.w3.org/2000/svg" width="689" height="295" viewBox="0 0 689 295" role="img" aria-label="IMUNI símbolo isolado - dois pontos">
  <title>IMUNI símbolo isolado - dois pontos</title>
  <g id="imuni-symbol-two-dots-original-spacing" fill="#000000">
    <path d="M 39 0 L 38 1 L 35 1 L 34 2 L 32 2 L 31 3 L 28 3 L 27 4 L 26 4 L 24 6 L 23 6 L 22 7 L 21 7 L 19 9 L 18 9 L 14 13 L 14 14 L 10 18 L 10 19 L 9 20 L 9 21 L 8 22 L 8 23 L 5 28 L 5 31 L 4 32 L 4 36 L 3 37 L 3 45 L 4 46 L 4 50 L 5 51 L 5 54 L 6 55 L 6 57 L 7 58 L 7 59 L 9 61 L 9 62 L 10 63 L 10 64 L 12 66 L 12 67 L 20 75 L 21 75 L 22 76 L 25 77 L 27 79 L 28 79 L 29 80 L 31 80 L 32 81 L 36 81 L 37 82 L 48 82 L 49 81 L 54 81 L 55 80 L 57 80 L 58 79 L 59 79 L 60 78 L 63 77 L 65 75 L 66 75 L 75 66 L 76 63 L 78 61 L 78 60 L 79 59 L 79 57 L 80 56 L 80 54 L 82 51 L 82 46 L 83 45 L 83 38 L 82 37 L 82 33 L 81 32 L 81 30 L 80 29 L 80 27 L 79 26 L 79 24 L 78 23 L 77 20 L 66 9 L 65 9 L 63 7 L 62 7 L 60 5 L 59 5 L 56 3 L 54 3 L 53 2 L 51 2 L 50 1 L 46 1 L 45 0 Z"/> <path d="M 642 0 L 641 1 L 638 1 L 637 2 L 634 2 L 633 3 L 631 3 L 630 4 L 629 4 L 628 5 L 625 6 L 623 8 L 622 8 L 616 14 L 616 15 L 613 18 L 613 19 L 611 21 L 611 22 L 609 25 L 609 27 L 608 28 L 608 30 L 607 31 L 607 36 L 606 37 L 606 46 L 607 47 L 607 51 L 608 52 L 608 55 L 609 56 L 609 57 L 610 58 L 610 59 L 611 60 L 612 63 L 614 65 L 614 66 L 618 70 L 618 71 L 619 72 L 620 72 L 623 75 L 624 75 L 626 77 L 627 77 L 632 80 L 634 80 L 635 81 L 639 81 L 640 82 L 651 82 L 652 81 L 657 81 L 658 80 L 660 80 L 661 79 L 664 78 L 666 76 L 667 76 L 669 74 L 670 74 L 675 69 L 675 68 L 679 64 L 680 61 L 682 59 L 682 57 L 683 56 L 683 53 L 684 52 L 684 50 L 685 49 L 685 36 L 684 35 L 684 31 L 683 30 L 683 27 L 682 26 L 682 24 L 680 22 L 679 19 L 670 10 L 669 10 L 666 7 L 663 6 L 661 4 L 660 4 L 659 3 L 657 3 L 656 2 L 653 2 L 652 1 L 649 1 L 648 0 Z"/>
  </g>
</svg>
