<svg xmlns="http://www.w3.org/2000/svg" width="689" height="295" viewBox="0 0 689 295" role="img" aria-label="IMUNI wordmark">
  <title>IMUNI wordmark</title>
  <g id="imuni-wordmark-clean-vector" fill="#FFFFFF" fill-rule="nonzero">
    <path d="M 78 277.27 L 72 277.9 L 11 278.01 L 5.12 276 L 2.25 272 L 1.51 266 L 1.55 105 L 3 100.29 L 6 97.49 L 12 96.6 L 76 96.85 L 80.29 98 L 83.22 102 L 83.92 111 L 83.76 268 L 82.11 274 Z"/>
    <path d="M 45 81.49 L 39 81.31 L 30 79.26 L 25 77.06 L 17 71.29 L 12 65.45 L 7.6 58 L 5.33 52 L 3.85 43 L 4.12 37 L 5.73 29 L 10.66 19 L 15.26 13 L 19 9.47 L 25 5.57 L 32 2.82 L 41 0.62 L 48 1.51 L 58 4.86 L 64.73 9 L 70 13.5 L 75 19.09 L 78 24.14 L 80.39 31 L 82.02 40 L 81.27 49 L 79.19 56 L 76.32 62 L 71 69.12 L 66 73.75 L 60 77.66 L 53 80.36 Z"/>
    <path d="M 600.4 266 L 598 269.47 L 593 271.88 L 581 272.13 L 575 270.28 L 500 210.58 L 498.94 212 L 497.59 230 L 494.48 242 L 490.31 252 L 483 263.72 L 472.8 274 L 463 280.48 L 449 286.22 L 434 289.17 L 402 292.22 L 341 292.46 L 308 290.23 L 290 286.62 L 281 283.46 L 272 279.02 L 263 272.39 L 255.59 264 L 249.92 255 L 246.74 248 L 242.97 235 L 241.54 228 L 240.18 211 L 239 209.96 L 183 258.28 L 176 261.87 L 172 262.25 L 168 261.6 L 162 258.35 L 143 243 L 89 196.88 L 88.36 193 L 88.44 99 L 89 97.86 L 91 97.31 L 114 97.34 L 118 98.26 L 176 147 L 179 147.81 L 182.87 146 L 236.21 99 L 241 97.23 L 246 93.56 L 251 92.49 L 311 92.25 L 318 93.48 L 321 96.18 L 322.3 101 L 322.4 184 L 323.8 195 L 325.66 201 L 329 206.82 L 332.6 211 L 341 216.6 L 353 220.39 L 370 221.06 L 383 220.23 L 391 218.35 L 396 216.08 L 400.58 213 L 405.47 208 L 410.36 199 L 413.18 185 L 413.21 102 L 413.74 98 L 415.54 95 L 419 92.72 L 425 91.9 L 484 91.77 L 493 92.63 L 496 94.21 L 500 98.82 L 593.86 172 L 599 177.25 L 600.52 181 L 600.89 187 Z"/>
    <path d="M 681 277.15 L 674 277.9 L 613 277.97 L 608 276.12 L 604.94 272 L 604.21 266 L 604.24 105 L 605.92 100 L 609 97.38 L 615 96.6 L 679 96.86 L 683 98 L 685.92 102 L 686.7 111 L 686.56 267 L 686.11 271 L 684.82 274 Z"/>
    <path d="M 648 81.47 L 641 81.2 L 633 79.37 L 627.62 77 L 620 71.53 L 614.43 65 L 609.86 57 L 608.08 52 L 606.6 43 L 606.84 37 L 608.46 29 L 612.76 20 L 618 13 L 622 9.26 L 628 5.46 L 635 2.74 L 644 0.62 L 650 1.34 L 660 4.54 L 667 8.67 L 673 13.74 L 678.42 20 L 681.13 25 L 683.36 32 L 684.7 40 L 683.96 49 L 682.3 55 L 679.05 62 L 673.84 69 L 669 73.53 L 663 77.54 L 656 80.29 Z"/>
  </g>
</svg>
