<svg xmlns="http://www.w3.org/2000/svg" viewBox="0 0 476 208" role="img" aria-label="IMUNI logo" fill="#FFFFFF">
  <title>IMUNI</title>
  <path d="M 24.00 0.00 L 16.00 3.00 L 7.00 11.00 L 2.00 23.00 L 2.00 33.00 L 6.00 43.00 L 12.00 50.00 L 21.00 55.00 L 32.00 56.00 L 33.00 55.00 L 39.00 54.00 L 48.00 48.00 L 53.00 41.00 L 53.00 39.00 L 55.00 36.00 L 56.00 25.00 L 55.00 24.00 L 55.00 21.00 L 53.00 15.00 L 44.00 5.00 L 33.00 0.00 Z"/>
  <path d="M 442.00 2.00 L 433.00 5.00 L 424.00 13.00 L 419.00 25.00 L 419.00 35.00 L 422.00 44.00 L 428.00 52.00 L 436.00 57.00 L 448.00 59.00 L 449.00 58.00 L 453.00 58.00 L 459.00 56.00 L 467.00 49.00 L 471.00 43.00 L 473.00 37.00 L 473.00 24.00 L 470.00 16.00 L 467.00 12.00 L 460.00 6.00 L 450.00 2.00 Z"/>
  <path d="M 156.00 66.00 L 154.00 68.00 L 154.00 166.00 L 155.00 167.00 L 155.00 170.00 L 158.00 179.00 L 166.00 191.00 L 175.00 198.00 L 181.00 201.00 L 187.00 203.00 L 190.00 203.00 L 191.00 204.00 L 195.00 204.00 L 201.00 206.00 L 209.00 206.00 L 210.00 205.00 L 209.00 68.00 L 207.00 66.00 L 204.00 65.00 L 163.00 65.00 L 162.00 66.00 Z"/>
  <path d="M 331.00 65.00 L 280.00 65.00 L 278.00 66.00 L 276.00 69.00 L 276.00 206.00 L 284.00 206.00 L 285.00 205.00 L 296.00 204.00 L 312.00 198.00 L 322.00 190.00 L 328.00 182.00 L 331.00 176.00 L 334.00 167.00 L 334.00 164.00 L 335.00 163.00 L 335.00 68.00 Z"/>
  <path d="M 340.00 66.00 L 340.00 139.00 L 351.00 147.00 L 356.00 152.00 L 358.00 152.00 L 373.00 165.00 L 377.00 166.00 L 382.00 171.00 L 412.00 195.00 L 412.00 114.00 Z"/>
  <path d="M 2.00 69.00 L 0.00 72.00 L 0.00 192.00 L 1.00 194.00 L 5.00 197.00 L 52.00 197.00 L 56.00 195.00 L 56.00 191.00 L 57.00 190.00 L 57.00 181.00 L 56.00 180.00 L 56.00 152.00 L 57.00 151.00 L 57.00 69.00 L 26.00 69.00 L 25.00 68.00 L 18.00 68.00 L 17.00 69.00 Z"/>
  <path d="M 62.00 69.00 L 62.00 154.00 L 96.00 183.00 L 100.00 185.00 L 107.00 185.00 L 113.00 181.00 L 121.00 173.00 L 122.00 173.00 L 149.00 149.00 L 149.00 70.00 L 110.00 105.00 L 106.00 105.00 L 82.00 84.00 L 70.00 75.00 L 64.00 69.00 Z"/>
  <path d="M 420.00 72.00 L 418.00 73.00 L 417.00 75.00 L 417.00 198.00 L 421.00 202.00 L 471.00 202.00 L 475.00 197.00 L 475.00 75.00 L 472.00 72.00 Z"/>
  <path d="M 215.00 148.00 L 215.00 206.00 L 216.00 207.00 L 270.00 207.00 L 271.00 206.00 L 271.00 148.00 L 270.00 148.00 L 264.00 154.00 L 260.00 156.00 L 251.00 157.00 L 250.00 158.00 L 235.00 158.00 L 234.00 157.00 L 229.00 157.00 L 220.00 153.00 Z"/>
</svg>
