<svg xmlns="http://www.w3.org/2000/svg" viewBox="0 0 476 208" role="img" aria-label="IMUNI logo" fill="#050505">
  <title>IMUNI</title>
  <path d="M 25.00 0.00 L 24.00 2.00 L 19.00 3.00 L 14.00 6.00 L 8.00 12.00 L 3.00 24.00 L 3.00 34.00 L 7.00 44.00 L 13.00 51.00 L 22.00 56.00 L 33.00 57.00 L 34.00 56.00 L 40.00 55.00 L 49.00 49.00 L 54.00 42.00 L 54.00 40.00 L 56.00 37.00 L 57.00 26.00 L 56.00 25.00 L 56.00 22.00 L 54.00 16.00 L 45.00 6.00 L 37.00 2.00 L 35.00 2.00 L 34.00 0.00 Z"/>
  <path d="M 443.00 3.00 L 434.00 6.00 L 425.00 14.00 L 420.00 26.00 L 420.00 36.00 L 423.00 45.00 L 429.00 53.00 L 437.00 58.00 L 449.00 60.00 L 450.00 59.00 L 454.00 59.00 L 460.00 57.00 L 468.00 50.00 L 472.00 44.00 L 474.00 38.00 L 474.00 25.00 L 471.00 17.00 L 468.00 13.00 L 461.00 7.00 L 451.00 3.00 Z"/>
  <path d="M 157.00 67.00 L 155.00 69.00 L 155.00 167.00 L 156.00 168.00 L 156.00 171.00 L 159.00 180.00 L 167.00 192.00 L 176.00 199.00 L 182.00 202.00 L 188.00 204.00 L 191.00 204.00 L 192.00 205.00 L 196.00 205.00 L 202.00 207.00 L 210.00 207.00 L 211.00 206.00 L 210.00 69.00 L 208.00 67.00 L 205.00 66.00 L 164.00 66.00 L 163.00 67.00 Z"/>
  <path d="M 332.00 66.00 L 281.00 66.00 L 279.00 67.00 L 277.00 70.00 L 277.00 207.00 L 285.00 207.00 L 286.00 206.00 L 297.00 205.00 L 313.00 199.00 L 323.00 191.00 L 329.00 183.00 L 332.00 177.00 L 335.00 168.00 L 335.00 165.00 L 336.00 164.00 L 336.00 69.00 Z"/>
  <path d="M 341.00 67.00 L 341.00 140.00 L 352.00 148.00 L 357.00 153.00 L 359.00 153.00 L 374.00 166.00 L 378.00 167.00 L 383.00 172.00 L 405.00 189.00 L 408.00 192.00 L 408.00 205.00 L 424.00 205.00 L 425.00 203.00 L 472.00 203.00 L 475.00 200.00 L 475.00 75.00 L 473.00 73.00 L 425.00 73.00 L 424.00 72.00 L 424.00 67.00 L 408.00 67.00 L 408.00 109.00 L 405.00 110.00 Z"/>
  <path d="M 0.00 73.00 L 0.00 193.00 L 1.00 193.00 L 4.00 197.00 L 6.00 198.00 L 52.00 198.00 L 53.00 199.00 L 67.00 199.00 L 67.00 161.00 L 68.00 160.00 L 97.00 184.00 L 101.00 186.00 L 108.00 186.00 L 114.00 182.00 L 122.00 174.00 L 123.00 174.00 L 150.00 150.00 L 150.00 71.00 L 111.00 106.00 L 107.00 106.00 L 104.00 104.00 L 83.00 85.00 L 71.00 76.00 L 67.00 72.00 L 67.00 70.00 L 27.00 70.00 L 26.00 69.00 L 19.00 69.00 L 18.00 70.00 L 3.00 70.00 L 2.00 72.00 Z"/>
  <path d="M 216.00 149.00 L 216.00 207.00 L 272.00 207.00 L 272.00 149.00 L 271.00 149.00 L 265.00 155.00 L 261.00 157.00 L 252.00 158.00 L 251.00 159.00 L 236.00 159.00 L 235.00 158.00 L 230.00 158.00 L 221.00 154.00 Z"/>
</svg>
